<svg width="920" height="350" viewBox="0 0 920 350" fill="none" xmlns="http://www.w3.org/2000/svg">
<path d="M451.267 19.1535C457.978 18.387 464.755 18.387 471.466 19.1535L706.346 45.9803C716.299 47.1172 725.99 49.9265 735.008 54.2898L838.827 104.52C865.279 117.318 882.082 144.115 882.082 173.5V173.5C882.082 202.885 865.279 229.682 838.827 242.48L735.008 292.71C725.99 297.073 716.299 299.883 706.346 301.02L471.466 327.846C464.755 328.613 457.978 328.613 451.267 327.846L216.388 301.02C206.434 299.883 196.744 297.074 187.725 292.71L83.9064 242.48C57.4547 229.682 40.651 202.885 40.651 173.5V173.5C40.651 144.115 57.4547 117.318 83.9063 104.52L187.725 54.2898C196.744 49.9265 206.434 47.1172 216.388 45.9803L451.267 19.1535Z" fill="#7393BC" fill-opacity="0.53"/>
<path d="M658.552 24.543L668.695 25.7959V25.7969L668.573 26.7891L678.716 28.043L678.838 27.0508V27.0498L688.98 28.3037V28.3047L688.857 29.2969L699 30.5508L699.123 29.5586V29.5576L709.265 30.8115L709.143 31.8047L714.214 32.4316C715.523 32.5934 716.827 32.7839 718.125 33.0039L718.292 32.0186V32.0176C720.923 32.4636 723.53 33.0272 726.105 33.7061V33.707L725.851 34.6738C728.399 35.3457 730.916 36.1315 733.395 37.0293L733.734 36.0889C736.239 36.9961 738.704 38.0159 741.121 39.1465V39.1475L740.697 40.0527C741.89 40.6105 743.071 41.1958 744.239 41.8076L748.617 44.0996L749.08 43.2139L757.836 47.7988H757.837L757.373 48.6846L766.129 53.2686L766.592 52.3828L775.347 56.9678H775.348L774.884 57.8535L783.64 62.4385L784.104 61.5527V61.5518L792.858 66.1367L792.396 67.0234L801.151 71.6074L801.614 70.7217L810.37 75.3066H810.371L809.907 76.1924L818.662 80.7773L819.125 79.8906L827.881 84.4756H827.882L827.418 85.3613L836.174 89.9463L836.638 89.0605V89.0596L845.394 93.6445V93.6455L844.93 94.5312L849.308 96.8232C850.73 97.5681 852.127 98.3492 853.496 99.165L854.006 98.3066C856.802 99.9722 859.486 101.782 862.053 103.722L861.453 104.518C864.016 106.454 866.459 108.522 868.776 110.71L869.461 109.983C871.82 112.21 874.048 114.56 876.14 117.019L875.381 117.665C877.457 120.104 879.396 122.653 881.191 125.297L882.017 124.736C883.834 127.413 885.505 130.186 887.022 133.044L886.142 133.513C887.64 136.335 888.988 139.24 890.177 142.215L891.103 141.845C892.3 144.842 893.338 147.909 894.208 151.034L893.247 151.303C894.102 154.373 894.794 157.499 895.315 160.668L896.299 160.506C896.821 163.681 897.175 166.899 897.352 170.148L896.355 170.202C896.442 171.794 896.486 173.394 896.486 175C896.486 176.606 896.442 178.206 896.355 179.798L897.352 179.851C897.175 183.1 896.821 186.318 896.299 189.493L895.315 189.332C894.794 192.501 894.102 195.627 893.247 198.697L894.208 198.965C893.338 202.09 892.3 205.157 891.103 208.154L890.177 207.785C888.988 210.76 887.64 213.665 886.142 216.487L887.022 216.955C885.505 219.813 883.834 222.586 882.017 225.263L881.191 224.703C879.396 227.347 877.457 229.896 875.381 232.335L876.14 232.98C874.048 235.439 871.82 237.789 869.461 240.016L868.776 239.29C866.459 241.478 864.016 243.546 861.453 245.482L862.053 246.277C859.486 248.217 856.802 250.027 854.006 251.692L853.496 250.835C852.469 251.447 851.426 252.039 850.369 252.611L849.308 253.177L844.93 255.469L845.394 256.354L836.638 260.939L836.174 260.054L827.418 264.639L827.881 265.523L819.125 270.108L818.662 269.223L809.907 273.808L810.37 274.692L801.614 279.277L801.151 278.393L792.396 282.977L792.858 283.862L784.104 288.447L783.64 287.562L774.884 292.146L775.347 293.031L766.592 297.616L766.129 296.731L757.373 301.315L757.836 302.2L749.08 306.785L748.617 305.9L744.239 308.192C743.071 308.804 741.89 309.39 740.697 309.947L741.121 310.853C738.704 311.983 736.239 313.003 733.734 313.91L733.395 312.971C730.916 313.869 728.399 314.654 725.851 315.326L726.105 316.293C723.53 316.972 720.923 317.535 718.292 317.981L718.125 316.996C716.827 317.216 715.523 317.407 714.214 317.568L709.143 318.195L709.265 319.188L699.123 320.441L699 319.449L688.857 320.703L688.98 321.695L678.838 322.949L678.716 321.957L668.573 323.211L668.695 324.203L658.552 325.456L658.431 324.464L648.288 325.718L648.411 326.71L638.269 327.964L638.146 326.972L628.003 328.226L628.126 329.218L617.983 330.472L617.86 329.479L607.719 330.732L607.84 331.725L597.698 332.979L597.576 331.986L587.434 333.24L587.557 334.232L577.414 335.486L577.291 334.494L567.148 335.748L567.271 336.739L557.128 337.993L557.006 337.001L546.864 338.255L546.986 339.247L536.844 340.501L536.722 339.509L526.579 340.763L526.701 341.755L516.559 343.008L516.437 342.017L506.294 343.27L506.416 344.262L496.274 345.516L496.151 344.523L486.009 345.777L486.132 346.77L475.989 348.023L475.867 347.031L470.796 347.658C469.004 347.88 467.207 348.045 465.408 348.156L465.469 349.153C461.826 349.378 458.173 349.378 454.53 349.153L454.592 348.156C452.793 348.045 450.996 347.88 449.204 347.658L444.133 347.031L444.011 348.023H444.01L433.867 346.77H433.868L433.991 345.777L423.849 344.523L423.726 345.516H423.725L413.583 344.262L413.706 343.27L403.563 342.017L403.44 343.008L393.298 341.755H393.299L393.421 340.763L383.278 339.509L383.156 340.501H383.155L373.013 339.247H373.014L373.136 338.255L362.994 337.001L362.871 337.993L352.729 336.739L352.852 335.748L342.709 334.494L342.586 335.486H342.585L332.442 334.232H332.443L332.566 333.24L322.424 331.986L322.302 332.979H322.301L312.159 331.725L312.281 330.732L302.14 329.479L302.016 330.472L291.873 329.218H291.874L291.997 328.226L281.854 326.972L281.731 327.964H281.73L271.588 326.71H271.589L271.712 325.718L261.569 324.464L261.447 325.456L251.304 324.203H251.305L251.427 323.211L241.284 321.957L241.162 322.949H241.161L231.019 321.695H231.02L231.143 320.703L221 319.449L220.877 320.441H220.876L210.734 319.188L210.857 318.195L205.786 317.568L204.806 317.442C203.826 317.31 202.849 317.161 201.875 316.996L201.708 317.981H201.707C199.076 317.535 196.469 316.972 193.894 316.293H193.895L194.149 315.326C191.601 314.654 189.084 313.869 186.605 312.971L186.265 313.91C183.76 313.003 181.295 311.983 178.878 310.853H178.879L179.303 309.947C178.11 309.39 176.929 308.804 175.761 308.192L171.383 305.9L170.919 306.785L162.163 302.2L162.627 301.315L153.871 296.731L153.407 297.616L144.651 293.031L145.116 292.146L136.36 287.562L135.896 288.447L127.141 283.862L127.604 282.977L118.849 278.393L118.385 279.277L109.629 274.692L110.093 273.808L101.338 269.223L100.874 270.108L92.1182 265.523L92.582 264.639L83.8262 260.054L83.3613 260.939L74.6055 256.354H74.6064L75.0703 255.469L70.6924 253.177L69.6309 252.611C68.5737 252.039 67.5311 251.447 66.5039 250.835L65.9932 251.692C63.1972 250.027 60.5132 248.217 57.9463 246.277L58.5469 245.482C55.9844 243.546 53.5408 241.478 51.2236 239.29L50.5381 240.016C48.1794 237.789 45.9514 235.439 43.8594 232.98L44.6191 232.335C42.5433 229.896 40.6039 227.347 38.8086 224.703L37.9824 225.263C36.1652 222.586 34.4942 219.813 32.9766 216.955L33.8584 216.487C32.3595 213.665 31.0116 210.76 29.8232 207.785L28.8965 208.154C27.6993 205.157 26.6613 202.09 25.791 198.965L26.7529 198.697C25.8979 195.627 25.2059 192.501 24.6846 189.332L23.7002 189.493C23.1779 186.318 22.8241 183.1 22.6475 179.851L23.6445 179.798C23.558 178.206 23.5137 176.606 23.5137 175C23.5137 173.394 23.558 171.794 23.6445 170.202L22.6475 170.148C22.8241 166.899 23.1779 163.681 23.7002 160.506L24.6846 160.668C25.2059 157.499 25.8979 154.373 26.7529 151.303L25.791 151.034C26.6614 147.909 27.6993 144.842 28.8965 141.845L29.8232 142.215C31.0116 139.24 32.3595 136.335 33.8584 133.513L32.9766 133.044C34.4943 130.186 36.1652 127.413 37.9824 124.736L38.8086 125.297C40.6039 122.653 42.5434 120.104 44.6191 117.665L43.8594 117.019C45.9514 114.56 48.1794 112.21 50.5381 109.983L51.2236 110.71C53.5408 108.522 55.9844 106.454 58.5469 104.518L57.9463 103.722C60.5132 101.782 63.1972 99.9722 65.9932 98.3066L66.5039 99.165C67.8734 98.3492 69.2699 97.5681 70.6924 96.8232L75.0703 94.5312L74.6064 93.6455L74.6055 93.6445L83.3613 89.0596L83.3623 89.0605L83.8262 89.9463L92.582 85.3613L92.1182 84.4756L100.874 79.8906L101.338 80.7773L110.093 76.1924L109.629 75.3066L118.385 70.7217L118.849 71.6074L127.604 67.0234L127.141 66.1367L135.896 61.5518L135.896 61.5527L136.36 62.4385L145.116 57.8535L144.652 56.9678L153.407 52.3828L153.871 53.2686L162.627 48.6846L162.163 47.7988L170.919 43.2139L171.383 44.0996L175.761 41.8076C176.929 41.1958 178.11 40.6105 179.303 40.0527L178.879 39.1475L178.878 39.1465C181.295 38.0159 183.76 36.9962 186.265 36.0889L186.605 37.0293C189.084 36.1315 191.601 35.3457 194.149 34.6738L193.895 33.707L193.894 33.7061C196.469 33.0271 199.076 32.4636 201.707 32.0176L201.708 32.0186L201.875 33.0039C202.849 32.8389 203.826 32.6899 204.806 32.5576L205.786 32.4316L210.857 31.8047L210.734 30.8115L220.876 29.5576L220.877 29.5586L221 30.5508L231.143 29.2969L231.02 28.3047L231.019 28.3037L241.161 27.0498L241.162 27.0508L241.285 28.043L251.427 26.7891L251.305 25.7969L251.304 25.7959L261.447 24.543L261.569 25.5361L271.712 24.2822L271.589 23.29L271.588 23.2891L281.73 22.0352L281.731 22.0361L281.854 23.0283L291.997 21.7744L291.874 20.7822L291.873 20.7812L302.016 19.5273L302.017 19.5283L302.14 20.5205L312.281 19.2676L312.159 18.2744L322.301 17.0205L322.302 17.0215L322.424 18.0137L332.566 16.7598L332.443 15.7676L332.442 15.7666L342.585 14.5127L342.586 14.5137L342.709 15.5059L352.852 14.252L352.729 13.2598L362.871 12.0059L362.994 12.999L373.136 11.7451L373.014 10.7529L373.013 10.752L383.155 9.49805L383.156 9.49902L383.278 10.4912L393.421 9.2373L393.299 8.24512L393.298 8.24414L403.44 6.99121L403.563 7.9834L413.706 6.73047L413.583 5.7373L423.725 4.4834L423.726 4.48438L423.849 5.47656L433.991 4.22266L433.868 3.23047L433.867 3.22949L444.01 1.97559L444.011 1.97656L444.133 2.96875L449.204 2.3418C450.996 2.12034 452.793 1.95453 454.592 1.84375L454.53 0.845703C458.173 0.621407 461.826 0.621447 465.469 0.845703L465.408 1.84375C467.207 1.95453 469.004 2.12034 470.796 2.3418L475.867 2.96875L475.989 1.97656V1.97559L486.132 3.22949V3.23047L486.009 4.22266L496.151 5.47656L496.274 4.48438V4.4834L506.416 5.7373L506.294 6.73047L516.437 7.9834L516.559 6.99121L526.701 8.24414V8.24512L526.579 9.2373L536.722 10.4912L536.844 9.49902V9.49805L546.986 10.752V10.7529L546.864 11.7451L557.006 12.999L557.128 12.0059L567.271 13.2598H567.271L567.148 14.252L577.291 15.5059L577.414 14.5137V14.5127L587.557 15.7666V15.7676L587.434 16.7598L597.576 18.0137L597.698 17.0215V17.0205L607.84 18.2744L607.719 19.2676L617.86 20.5205L617.983 19.5283V19.5273L628.126 20.7812V20.7822L628.003 21.7744L638.146 23.0283L638.269 22.0361V22.0352L648.411 23.2891V23.29L648.288 24.2822L658.431 25.5361L658.552 24.543Z" stroke="black" stroke-width="2" stroke-dasharray="10 10"/>
</svg>
